<svg width="111" height="28" viewBox="0 0 111 28" fill="none" xmlns="http://www.w3.org/2000/svg">
<g clip-path="url(#clip0_7486_32336)">
<path fill-rule="evenodd" clip-rule="evenodd" d="M36.27 25.825L38.41 21.23H39.46H45.68L43.81 17.215H41.325H40.275L42.045 13.42L42.515 12.415L45.095 6.87496L42.515 1.33496L39.935 6.87496L39.465 7.87996L35.12 17.215L34.415 18.73L31.11 25.825H36.27ZM53.915 25.825L53.47 24.87L45.62 8.00996L43.04 13.55L44.75 17.22L46.62 21.235L48.76 25.83H53.475L53.915 25.825Z" fill="white"/>
<path fill-rule="evenodd" clip-rule="evenodd" d="M54.78 1.8252V25.6752L54.85 25.8252H59.19V21.3802V1.8302H54.78V1.8252ZM69.66 25.8202H70.08V21.3752H69.66H60.5V25.8202H69.66Z" fill="white"/>
<path fill-rule="evenodd" clip-rule="evenodd" d="M75.3801 25.8202V21.3752V1.8252H70.9751V25.8252L75.3801 25.8202ZM76.6901 21.3802V25.8252H86.2051V21.3802H76.6901Z" fill="white"/>
<path fill-rule="evenodd" clip-rule="evenodd" d="M87.125 13.7551C87.125 20.3401 92.465 25.6801 99.05 25.6801C105.635 25.6801 110.975 20.3401 110.975 13.7551C110.975 7.17008 105.635 1.83008 99.05 1.83008C92.465 1.83008 87.125 7.16508 87.125 13.7551ZM99.055 21.4051C94.83 21.4051 91.4 17.9801 91.4 13.7501C91.4 9.52508 94.825 6.09508 99.055 6.09508C103.28 6.09508 106.71 9.52008 106.71 13.7501C106.705 17.9801 103.28 21.4051 99.055 21.4051Z" fill="white"/>
<path fill-rule="evenodd" clip-rule="evenodd" d="M1.62293 22.141H5.73007V26.2482H1.62293V22.141ZM1.62293 12.8839H5.73007V16.991H1.62293V12.8839ZM1.62293 3.67357H5.73007V7.78071H1.62293V3.67357ZM10.8449 3.7556H14.9521V7.86273H10.8449V3.7556ZM20.0318 3.7556H24.1389V7.86273H20.0318V3.7556ZM10.0247 13.5108V14.9579H9.9954H9.5091H8.74744V10.1477C8.74744 10.1477 7.56393 9.98368 5.64219 9.9954C3.72044 10.0071 2.80645 9.89579 1.42373 10.7746C0.0410141 11.6535 0.029296 12.5675 0.029296 14.6298C0.029296 16.6922 0.029296 17.0086 0.029296 17.284C0.029296 17.5593 0.164052 17.9402 0.662064 17.9402H2.80059C2.5838 18.198 1.68152 19.2643 1.20109 19.8795C0.650346 20.5826 0.0117188 21.9887 0.0117188 23.4417C0.0117188 24.8889 0.0175781 26.0255 0.0996036 26.3419C0.181629 26.6407 0.333962 27.2794 0.773384 27.6075C1.56434 28.1933 4.77506 28.0059 5.72421 27.7949C8.00921 27.2911 8.89391 26.2072 8.86462 23.7757C8.84118 21.9535 8.86462 19.6217 8.73572 19.358C8.60096 19.0944 8.31973 19.2057 7.08935 19.2057C5.85897 19.2057 3.81419 19.2057 3.81419 19.2057L3.77318 17.946H6.24566C6.8257 17.946 8.09709 17.6648 8.91735 16.8504C9.50324 16.2645 9.80791 15.9422 9.93681 15.8133L10.0364 15.7841V17.3718C10.0364 17.3718 10.013 17.987 10.7395 17.987C11.466 17.987 14.4072 18.028 15.1337 18.0105C15.8602 17.987 16.3407 17.946 16.8504 17.5066C17.3543 17.0672 17.9402 16.5633 17.9694 16.1122C18.0046 15.661 17.9694 11.0676 17.9694 10.6282C17.9694 10.1887 17.8816 10.0364 17.0672 10.0364C16.2528 10.0364 15.0986 10.0774 14.3662 10.0774C13.628 10.0774 13.4815 10.1536 13.3233 9.87822C13.1651 9.60871 12.9307 8.78259 12.9307 8.78259H16.37L17.3777 7.87445C17.3777 7.87445 18.0046 7.35886 18.0046 6.90772C18.0046 6.45658 18.0808 1.97447 18.0808 1.42373C18.0808 0.872987 18.1042 0.609333 17.7937 0.304667C17.489 2.98023e-07 16.6043 0.0820257 15.5321 0.0820257C14.4541 0.0820257 13.9268 0.0820257 13.2003 0.0820257C12.4737 0.0820257 11.9347 0.445282 11.5949 0.785102C11.2551 1.12492 10.0013 2.36116 10.0013 5.27307H8.74744V0.328102C8.74744 0.328102 7.56393 0.164051 5.64219 0.175769C3.72044 0.187487 2.85918 0.246076 1.4999 1.2421C0.146476 2.23813 0.029296 3.82005 0.029296 5.4254C0.029296 7.49362 0.029296 7.80414 0.029296 8.07952C0.029296 8.35489 0.164052 8.73572 0.662064 8.73572C1.15422 8.73572 5.65976 8.73572 6.24566 8.73572C6.8257 8.73572 8.09709 8.45449 8.91735 7.64009C9.7376 6.81984 10.0071 6.52689 10.0071 6.52689V8.07952V8.55995C10.0071 8.55995 10.0071 8.79431 10.1712 8.78259H12.1456C12.1456 8.78259 10.8918 10.1653 10.6106 10.8215C10.3118 11.466 10.0423 11.7648 10.0247 13.5108ZM19.0123 12.8722C19.0123 12.8722 19.0358 15.4208 19.0768 16.5399C19.1178 17.6589 19.4518 17.9226 19.692 17.9226H21.3969C21.3969 17.9226 18.9127 20.0201 19.0006 22.5512C19.0006 22.5512 19.0241 24.8362 19.1119 26.0665C19.1998 27.2969 18.9362 27.6719 19.7271 27.7363C20.5181 27.8008 23.0667 28.0645 25.0236 27.4727C26.9805 26.8809 27.7012 25.5627 27.8828 24.4612C28.0586 23.3656 27.9414 20.0259 27.9063 19.5865C27.8945 19.4166 27.8242 19.317 27.7305 19.2643C27.584 19.1764 27.3614 19.194 27.1563 19.194C26.8282 19.194 24.7834 19.2174 23.7054 19.2174C22.6273 19.2174 22.891 19.194 22.891 18.819C22.891 18.444 22.891 17.9284 22.891 17.9284H24.2151C24.7424 17.9284 26.3243 17.7937 26.9161 17.0965C27.5078 16.3934 27.9707 15.538 27.9707 14.3486C27.9707 13.1592 27.8711 11.3078 27.8711 10.7571C27.8711 10.2063 27.7481 10.095 27.3848 10.0891C27.0216 10.0774 24.7893 10.1009 23.8343 10.1009C22.8793 10.1009 22.8793 10.1126 22.8793 9.90165C22.8793 9.69073 22.8793 8.83532 22.8793 8.83532C24.76 8.83532 25.9083 8.83532 26.6407 8.26114C27.4317 7.64595 27.9356 6.1109 27.959 5.18518C27.9824 4.26533 27.9121 1.42373 27.8477 1.05461C27.7715 0.603474 27.2501 0.269513 26.5528 0.152333C26.5528 0.152333 25.3459 0 23.9573 0C22.5746 0 20.9692 0.415987 20.0904 1.16593C19.2115 1.91588 19.0358 3.23415 19.0358 5.03285C19.0358 6.83156 19.0768 8.23771 19.2994 8.54823C19.4693 8.78845 19.9615 8.82946 21.1802 8.83532C21.1919 8.83532 18.9772 10.9563 19.0123 12.8722ZM10.8449 12.8839H14.9521V16.991H10.8449V12.8839ZM19.9556 12.8839H24.0628V16.991H19.9556V12.8839ZM19.9556 22.1938H24.0628V26.3009H19.9556V22.1938Z" fill="#3A5EFC"/>
<path fill-rule="evenodd" clip-rule="evenodd" d="M24.1391 5.05647V7.86877H20.3132L21.1862 8.35507L20.6003 8.82379C20.776 8.82964 20.9753 8.82964 21.192 8.82964C21.1862 8.8355 18.9715 10.9565 19.0066 12.8723C19.0066 12.8723 19.0301 15.421 19.0711 16.54C19.1121 17.6591 19.4461 17.9228 19.6863 17.9228H19.8562L19.9499 17.747C19.9499 17.747 19.9206 17.4423 20.0144 16.9853H19.9499V12.884H24.0571V13.2473C26.1429 12.0989 27.2912 10.6694 27.672 10.1421C27.6017 10.1069 27.508 10.0893 27.385 10.0835C27.0217 10.0717 24.7894 10.0952 23.8344 10.0952C22.8794 10.0952 22.8794 10.1069 22.8794 9.89598C22.8794 9.68505 22.8794 8.82964 22.8794 8.82964C24.7601 8.82964 25.9085 8.82965 26.6409 8.25547C27.4318 7.64028 27.9357 6.10523 27.9591 5.17951C27.9709 4.66978 27.9533 3.56829 27.9298 2.63086L24.1391 5.05647Z" fill="#7F48EC"/>
<path fill-rule="evenodd" clip-rule="evenodd" d="M17.9578 16.0946C17.9871 15.6844 17.9637 11.8761 17.9578 10.8391C17.618 10.7922 16.5927 10.7453 15.831 11.8702C15.5381 12.3038 15.1807 12.626 14.7823 12.8838H14.958V16.991H10.8509V15.579C10.3763 16.3992 10.1068 17.2839 10.0424 17.489C10.0482 17.5183 10.0599 17.5534 10.0717 17.5827C10.1127 17.6296 10.1713 17.7116 10.2357 17.8112C10.3412 17.8991 10.4994 17.9636 10.7337 17.9636C11.4602 17.9636 14.4014 18.0046 15.1279 17.987C15.8545 17.9636 16.3349 17.9226 16.8446 17.4831C17.3426 17.0496 17.9227 16.5457 17.9578 16.0946Z" fill="#7F48EC"/>
<path fill-rule="evenodd" clip-rule="evenodd" d="M8.85871 23.7702C8.84114 22.2703 8.85286 20.4365 8.78255 19.6807C6.73777 19.997 6.19289 21.081 5.73003 22.4871V26.2486H2.90601V27.9945C4.00749 28.0121 5.19686 27.9067 5.71245 27.7895C7.99745 27.2856 8.88215 26.2017 8.85871 23.7702Z" fill="#7F48EC"/>
<path fill-rule="evenodd" clip-rule="evenodd" d="M7.21814 17.7758C7.7806 17.6176 8.41923 17.3188 8.90552 16.8383C9.49142 16.2524 9.79608 15.9302 9.92498 15.8013L10.0246 15.772V17.3598C10.0246 17.3598 10.0246 17.4184 10.0422 17.4946C10.1008 17.2895 10.3703 16.4048 10.8507 15.5845V12.8894H14.7879C15.1863 12.6257 15.5437 12.3035 15.8367 11.8758C16.5983 10.7509 17.6295 10.7919 17.9635 10.8446C17.9635 10.7392 17.9635 10.6571 17.9635 10.6161C17.9635 10.1767 17.8756 10.0244 17.0612 10.0244C16.2468 10.0244 15.0926 10.0654 14.3602 10.0654C13.8681 10.0654 13.6396 10.1005 13.4931 10.0361L13.6454 10.5517L11.0733 11.12L11.6417 9.35059C11.2608 9.80759 10.7745 10.4286 10.6105 10.8095C10.3234 11.4715 10.0597 11.7703 10.0363 13.5105V14.9576H10.007H9.52071H8.75905V14.5358L8.57742 14.8814V16.2232L7.21814 17.7758Z" fill="#B233E2"/>
<path fill-rule="evenodd" clip-rule="evenodd" d="M26.7228 0.181641L23.0551 2.91192L24.139 3.75561L24.1565 3.76733L24.139 3.77905V5.05044L27.9414 2.62483C27.918 1.86316 27.8887 1.20696 27.8594 1.04291C27.7891 0.63864 27.3438 0.322256 26.7228 0.181641Z" fill="#B233E2"/>
<path fill-rule="evenodd" clip-rule="evenodd" d="M24.1388 3.7556L23.0549 2.91191L26.7226 0.181628C26.6699 0.16991 26.6171 0.158192 26.5644 0.152333C26.5644 0.152333 25.3575 0 23.9689 0C22.5862 0 20.9808 0.415987 20.102 1.16593C19.2231 1.91588 19.0474 3.23415 19.0474 5.03285C19.0474 6.83155 19.0884 8.23771 19.311 8.54823C19.4516 8.74158 19.8032 8.80603 20.6 8.8236L21.1859 8.35489L20.3129 7.86859H20.0317V7.7104L20.0024 7.69282L20.0317 7.67525V3.7556H24.1388Z" fill="#D12BDD"/>
<path fill-rule="evenodd" clip-rule="evenodd" d="M13.3058 9.86089C13.1476 9.59138 12.9132 8.76526 12.9132 8.76526H16.3525L17.3602 7.85712C17.3602 7.85712 17.9871 7.34153 17.9871 6.89039C17.9871 6.62674 18.0164 4.98037 18.034 3.55078L17.2313 3.58593L14.9522 5.07997V7.86298H10.845V7.76924L10.7337 7.8454L10.0306 6.52714L9.99548 6.60916V8.06804V8.54848C9.99548 8.54848 9.99548 8.78284 10.1595 8.77112H12.134C12.134 8.77112 11.9114 9.0172 11.6301 9.35116L11.0618 11.1206L13.6339 10.5522L13.4816 10.0367C13.4113 10.0074 13.3585 9.95463 13.3058 9.86089Z" fill="#D12BDD"/>
<path fill-rule="evenodd" clip-rule="evenodd" d="M8.74143 14.5358V10.1416C8.74143 10.1416 8.6594 10.1299 8.50121 10.1123L8.17897 12.5906L5.72406 15.0866V16.9907H1.61693V16.7798L1.54076 16.8091L1.49975 17.6411L1.35913 17.934H2.40203L3.01722 17.6001L1.69895 19.598L3.08167 20.3245L3.67342 17.6001L5.31979 17.934H6.22793C6.46815 17.934 6.81969 17.8872 7.21224 17.7758L8.55394 16.2173V14.8756L8.74143 14.5358Z" fill="#D12BDD"/>
<path fill-rule="evenodd" clip-rule="evenodd" d="M1.62293 3.67386H5.73007V7.78099H1.62293V3.67386ZM6.23394 8.73015C6.81398 8.73015 8.08537 8.44892 8.90563 7.63452C9.72589 6.81426 9.9954 6.52132 9.9954 6.52132V6.61506L10.0306 6.53303L10.7336 7.8513L10.8449 7.77514V3.76174H14.9521V5.08587L17.2312 3.59183L18.0339 3.55668C18.0515 2.54308 18.0632 1.6408 18.0632 1.4123C18.0632 0.861556 18.0866 0.597902 17.7761 0.293236C17.4714 -0.0114305 16.5867 0.070595 15.5145 0.070595C14.4365 0.070595 13.9092 0.070595 13.1827 0.070595C12.4562 0.070595 11.9171 0.433851 11.5773 0.773671C11.2375 1.11349 9.98368 2.34973 9.98368 5.26164H8.72986V0.316672C8.72986 0.316672 7.54635 0.152621 5.62461 0.164339C3.70287 0.176057 2.8416 0.234646 1.48232 1.23067C0.128898 2.22669 0.0117188 3.80862 0.0117188 5.41397C0.0117188 7.48219 0.0117188 7.79271 0.0117188 8.06808C0.0117188 8.34346 0.146475 8.72429 0.644488 8.72429C1.14836 8.73015 5.6539 8.73015 6.23394 8.73015Z" fill="#FF1FD7"/>
<path fill-rule="evenodd" clip-rule="evenodd" d="M5.63035 9.98935C3.7086 10.0011 2.79461 9.88974 1.41189 10.7686C0.0291741 11.6474 0.0174561 12.5614 0.0174561 14.6238C0.0174561 16.6861 0.0174561 17.0025 0.0174561 17.2779C0.0174561 17.5533 0.152212 17.9341 0.650224 17.9341H1.36502L1.50563 17.6412L1.54665 16.8092L1.62281 16.7799V12.8837H5.72995V15.0866L8.18486 12.5907L8.5071 10.1124C8.06768 10.0655 7.04822 9.97763 5.63035 9.98935Z" fill="#FF1FD7"/>
<path fill-rule="evenodd" clip-rule="evenodd" d="M7.07763 19.2001C5.84725 19.2001 3.80247 19.2001 3.80247 19.2001L3.76146 17.9404H5.3258L3.67943 17.6064L3.08767 20.3309L1.70496 19.6044L3.02323 17.6064L2.40803 17.9404H2.78887C2.57209 18.1982 1.66981 19.2645 1.18937 19.8797C0.638627 20.5828 0 21.989 0 23.442C0 24.8891 0.00585874 26.0258 0.0878843 26.3422C0.16991 26.641 0.322243 27.2796 0.761666 27.6077C1.11906 27.8772 1.98619 27.9827 2.90605 28.0003V26.2543H1.61707V22.1413H5.72421V22.487C6.18707 21.0808 6.73195 19.9969 8.77673 19.6805C8.75915 19.5165 8.74158 19.4051 8.71814 19.3583C8.5951 19.0888 8.30801 19.2001 7.07763 19.2001Z" fill="#B233E2"/>
</g>
<defs>
<clipPath id="clip0_7486_32336">
<rect width="111" height="28" fill="white"/>
</clipPath>
</defs>
</svg>
