<svg width="40" height="40" viewBox="0 0 40 40" fill="none" xmlns="http://www.w3.org/2000/svg">
<circle cx="20" cy="20" r="20" fill="#F7931A"/>
<path fill-rule="evenodd" clip-rule="evenodd" d="M12.1146 25.1772H14.7293V27.7919H12.1146V25.1772ZM12.1146 19.2838H14.7293V21.8985H12.1146V19.2838ZM12.1146 13.4202H14.7293V16.035H12.1146V13.4202ZM17.9856 13.4725H20.6004V16.0872H17.9856V13.4725ZM23.8343 13.4725H26.449V16.0872H23.8343V13.4725ZM17.4634 19.6829V20.6042H17.4448H17.1352H16.6503V17.5419C16.6503 17.5419 15.8968 17.4375 14.6734 17.4449C13.45 17.4524 12.8681 17.3815 11.9878 17.941C11.1075 18.5005 11.1001 19.0824 11.1001 20.3953C11.1001 21.7083 11.1001 21.9097 11.1001 22.085C11.1001 22.2603 11.1858 22.5028 11.5029 22.5028H12.8643C12.7263 22.6669 12.1519 23.3458 11.8461 23.7374C11.4954 24.185 11.0889 25.0802 11.0889 26.0053C11.0889 26.9266 11.0926 27.6502 11.1448 27.8516C11.197 28.0418 11.294 28.4484 11.5738 28.6573C12.0773 29.0303 14.1214 28.9109 14.7256 28.7766C16.1803 28.4559 16.7435 27.7658 16.7249 26.2179C16.71 25.0578 16.7249 23.5733 16.6428 23.4054C16.557 23.2376 16.378 23.3085 15.5947 23.3085C14.8114 23.3085 13.5096 23.3085 13.5096 23.3085L13.4835 22.5065H15.0576C15.4269 22.5065 16.2363 22.3275 16.7585 21.809C17.1315 21.436 17.3254 21.2309 17.4075 21.1488L17.4709 21.1301V22.141C17.4709 22.141 17.456 22.5326 17.9185 22.5326C18.381 22.5326 20.2535 22.5587 20.716 22.5475C21.1785 22.5326 21.4844 22.5065 21.8089 22.2268C22.1297 21.947 22.5027 21.6262 22.5213 21.339C22.5437 21.0518 22.5213 18.1275 22.5213 17.8478C22.5213 17.568 22.4654 17.471 21.9469 17.471C21.4284 17.471 20.6936 17.4971 20.2274 17.4971C19.7574 17.4971 19.6641 17.5456 19.5634 17.3703C19.4627 17.1987 19.3135 16.6728 19.3135 16.6728H21.503L22.1446 16.0947C22.1446 16.0947 22.5437 15.7664 22.5437 15.4792C22.5437 15.192 22.5922 12.3386 22.5922 11.9879C22.5922 11.6373 22.6071 11.4695 22.4094 11.2755C22.2154 11.0815 21.6522 11.1338 20.9696 11.1338C20.2833 11.1338 19.9476 11.1338 19.4851 11.1338C19.0226 11.1338 18.6794 11.365 18.4631 11.5814C18.2467 11.7977 17.4485 12.5847 17.4485 14.4385H16.6503V11.2904C16.6503 11.2904 15.8968 11.186 14.6734 11.1934C13.45 11.2009 12.9016 11.2382 12.0363 11.8723C11.1747 12.5064 11.1001 13.5135 11.1001 14.5355C11.1001 15.8522 11.1001 16.0499 11.1001 16.2252C11.1001 16.4005 11.1858 16.643 11.5029 16.643C11.8162 16.643 14.6846 16.643 15.0576 16.643C15.4269 16.643 16.2363 16.4639 16.7585 15.9455C17.2807 15.4233 17.4522 15.2368 17.4522 15.2368V16.2252V16.5311C17.4522 16.5311 17.4522 16.6803 17.5567 16.6728H18.8137C18.8137 16.6728 18.0155 17.5531 17.8364 17.9708C17.6462 18.3811 17.4746 18.5714 17.4634 19.6829ZM23.1852 19.2763C23.1852 19.2763 23.2002 20.8989 23.2263 21.6113C23.2524 22.3237 23.465 22.4916 23.6179 22.4916H24.7034C24.7034 22.4916 23.1218 23.8269 23.1778 25.4383C23.1778 25.4383 23.1927 26.893 23.2487 27.6763C23.3046 28.4596 23.1368 28.6983 23.6403 28.7393C24.1439 28.7804 25.7664 28.9482 27.0122 28.5715C28.258 28.1948 28.7168 27.3555 28.8325 26.6543C28.9444 25.9568 28.8698 23.8307 28.8474 23.5509C28.8399 23.4427 28.7952 23.3793 28.7355 23.3458C28.6422 23.2898 28.5005 23.301 28.3699 23.301C28.1611 23.301 26.8593 23.3159 26.173 23.3159C25.4866 23.3159 25.6545 23.301 25.6545 23.0623C25.6545 22.8236 25.6545 22.4953 25.6545 22.4953H26.4975C26.8332 22.4953 27.8403 22.4095 28.217 21.9657C28.5937 21.5181 28.8884 20.9735 28.8884 20.2163C28.8884 19.4591 28.825 18.2804 28.825 17.9298C28.825 17.5792 28.7467 17.5083 28.5154 17.5046C28.2841 17.4971 26.863 17.5121 26.255 17.5121C25.647 17.5121 25.647 17.5195 25.647 17.3852C25.647 17.251 25.647 16.7064 25.647 16.7064C26.8444 16.7064 27.5754 16.7064 28.0417 16.3408C28.5452 15.9492 28.866 14.9719 28.8809 14.3826C28.8959 13.797 28.8511 11.9879 28.8101 11.7529C28.7616 11.4657 28.4296 11.2531 27.9857 11.1785C27.9857 11.1785 27.2174 11.0815 26.3334 11.0815C25.4531 11.0815 24.4311 11.3464 23.8716 11.8238C23.3121 12.3013 23.2002 13.1405 23.2002 14.2856C23.2002 15.4307 23.2263 16.3259 23.368 16.5236C23.4762 16.6765 23.7895 16.7026 24.5653 16.7064C24.5728 16.7064 23.1629 18.0566 23.1852 19.2763ZM17.9856 19.2838H20.6004V21.8985H17.9856V19.2838ZM23.7858 19.2838H26.4005V21.8985H23.7858V19.2838ZM23.7858 25.2108H26.4005V27.8255H23.7858V25.2108Z" fill="white"/>
<path fill-rule="evenodd" clip-rule="evenodd" d="M26.4489 14.3001V16.0905H24.0132L24.569 16.4001L24.196 16.6985C24.3079 16.7022 24.4347 16.7022 24.5727 16.7022C24.569 16.7059 23.159 18.0562 23.1814 19.2759C23.1814 19.2759 23.1963 20.8984 23.2224 21.6109C23.2486 22.3233 23.4612 22.4911 23.6141 22.4911H23.7223L23.7819 22.3792C23.7819 22.3792 23.7633 22.1853 23.823 21.8943H23.7819V19.2834H26.3967V19.5146C27.7246 18.7835 28.4556 17.8734 28.6981 17.5377C28.6533 17.5153 28.5936 17.5041 28.5153 17.5004C28.2841 17.493 26.8629 17.5079 26.2549 17.5079C25.6469 17.5079 25.6469 17.5153 25.6469 17.3811C25.6469 17.2468 25.6469 16.7022 25.6469 16.7022C26.8443 16.7022 27.5754 16.7022 28.0416 16.3367C28.5452 15.945 28.8659 14.9677 28.8808 14.3784C28.8883 14.0539 28.8771 13.3527 28.8622 12.7559L26.4489 14.3001Z" fill="white"/>
<path fill-rule="evenodd" clip-rule="evenodd" d="M22.5138 21.3281C22.5325 21.067 22.5176 18.6425 22.5138 17.9823C22.2975 17.9524 21.6447 17.9226 21.1598 18.6388C20.9733 18.9148 20.7458 19.1199 20.4922 19.284H20.6041V21.8988H17.9893V20.9998C17.6872 21.522 17.5156 22.0853 17.4746 22.2158C17.4783 22.2345 17.4858 22.2568 17.4933 22.2755C17.5194 22.3053 17.5567 22.3576 17.5977 22.421C17.6648 22.4769 17.7655 22.5179 17.9147 22.5179C18.3773 22.5179 20.2497 22.5441 20.7122 22.5329C21.1748 22.5179 21.4806 22.4918 21.8051 22.2121C22.1222 21.9361 22.4915 21.6153 22.5138 21.3281Z" fill="white"/>
<path fill-rule="evenodd" clip-rule="evenodd" d="M16.7213 26.2141C16.7101 25.2593 16.7176 24.0918 16.6728 23.6106C15.3711 23.812 15.0242 24.5021 14.7295 25.3973V27.7919H12.9316V28.9035C13.6329 28.9146 14.3901 28.8475 14.7183 28.7729C16.173 28.4521 16.7362 27.7621 16.7213 26.2141Z" fill="white"/>
<path fill-rule="evenodd" clip-rule="evenodd" d="M15.6768 22.3984C16.0348 22.2977 16.4414 22.1075 16.751 21.8016C17.124 21.4286 17.318 21.2235 17.4 21.1414L17.4634 21.1227V22.1336C17.4634 22.1336 17.4634 22.1709 17.4746 22.2194C17.5119 22.0888 17.6835 21.5256 17.9894 21.0034V19.2876H20.4959C20.7496 19.1197 20.9771 18.9146 21.1636 18.6423C21.6485 17.9261 22.305 17.9522 22.5176 17.9858C22.5176 17.9187 22.5176 17.8665 22.5176 17.8403C22.5176 17.5606 22.4616 17.4636 21.9431 17.4636C21.4247 17.4636 20.6899 17.4897 20.2236 17.4897C19.9103 17.4897 19.7648 17.5121 19.6716 17.4711L19.7686 17.7993L18.1311 18.1611L18.4929 17.0347C18.2505 17.3256 17.9409 17.721 17.8364 17.9634C17.6537 18.3849 17.4858 18.5752 17.4709 19.683V20.6043H17.4522H17.1426H16.6577V20.3357L16.5421 20.5558V21.41L15.6768 22.3984Z" fill="white"/>
<path fill-rule="evenodd" clip-rule="evenodd" d="M28.0943 11.1967L25.7593 12.9348L26.4493 13.472L26.4605 13.4794L26.4493 13.4869V14.2963L28.8701 12.7521C28.8552 12.2672 28.8365 11.8494 28.8179 11.745C28.7731 11.4876 28.4896 11.2862 28.0943 11.1967Z" fill="white"/>
<path fill-rule="evenodd" clip-rule="evenodd" d="M26.4494 13.4725L25.7593 12.9354L28.0943 11.1972C28.0607 11.1897 28.0272 11.1823 27.9936 11.1785C27.9936 11.1785 27.2252 11.0815 26.3412 11.0815C25.4609 11.0815 24.4389 11.3464 23.8794 11.8238C23.3199 12.3013 23.208 13.1405 23.208 14.2856C23.208 15.4307 23.2341 16.3259 23.3759 16.5236C23.4654 16.6467 23.6892 16.6877 24.1965 16.6989L24.5695 16.4005L24.0137 16.0909H23.8346V15.9902L23.816 15.979L23.8346 15.9678V13.4725H26.4494Z" fill="white"/>
<path fill-rule="evenodd" clip-rule="evenodd" d="M19.5523 17.3584C19.4516 17.1868 19.3024 16.6609 19.3024 16.6609H21.4919L22.1334 16.0827C22.1334 16.0827 22.5325 15.7545 22.5325 15.4673C22.5325 15.2994 22.5512 14.2513 22.5624 13.3412L22.0514 13.3636L20.6004 14.3147V16.0865H17.9857V16.0268L17.9148 16.0753L17.4672 15.236L17.4448 15.2882V16.217V16.5229C17.4448 16.5229 17.4448 16.6721 17.5493 16.6646H18.8063C18.8063 16.6646 18.6645 16.8213 18.4855 17.0339L18.1237 18.1603L19.7612 17.7985L19.6642 17.4703C19.6194 17.4516 19.5858 17.4181 19.5523 17.3584Z" fill="white"/>
<path fill-rule="evenodd" clip-rule="evenodd" d="M16.6466 20.3363V17.5388C16.6466 17.5388 16.5944 17.5313 16.4936 17.5201L16.2885 19.0979L14.7256 20.6869V21.8992H12.1109V21.7649L12.0624 21.7835L12.0363 22.3132L11.9468 22.4997H12.6107L13.0024 22.2871L12.1631 23.559L13.0434 24.0215L13.4201 22.2871L14.4683 22.4997H15.0464C15.1993 22.4997 15.4231 22.4698 15.673 22.399L16.5272 21.4068V20.5526L16.6466 20.3363Z" fill="white"/>
<path fill-rule="evenodd" clip-rule="evenodd" d="M12.1146 13.4196H14.7293V16.0343H12.1146V13.4196ZM15.0501 16.6386C15.4194 16.6386 16.2288 16.4596 16.751 15.9411C17.2732 15.4189 17.4448 15.2324 17.4448 15.2324V15.2921L17.4672 15.2398L17.9148 16.0791L17.9856 16.0306V13.4756H20.6004V14.3185L22.0513 13.3674L22.5623 13.345C22.5735 12.6997 22.581 12.1253 22.581 11.9798C22.581 11.6292 22.5959 11.4614 22.3982 11.2674C22.2043 11.0734 21.641 11.1257 20.9584 11.1257C20.2721 11.1257 19.9364 11.1257 19.4739 11.1257C19.0114 11.1257 18.6682 11.3569 18.4519 11.5733C18.2355 11.7896 17.4373 12.5766 17.4373 14.4304H16.6391V11.2823C16.6391 11.2823 15.8856 11.1779 14.6622 11.1853C13.4388 11.1928 12.8905 11.2301 12.0251 11.8642C11.1635 12.4983 11.0889 13.5054 11.0889 14.5274C11.0889 15.8441 11.0889 16.0418 11.0889 16.2171C11.0889 16.3924 11.1747 16.6349 11.4917 16.6349C11.8125 16.6386 14.6809 16.6386 15.0501 16.6386Z" fill="white"/>
<path fill-rule="evenodd" clip-rule="evenodd" d="M14.6661 17.4409C13.4427 17.4483 12.8608 17.3775 11.9805 17.937C11.1002 18.4965 11.0928 19.0783 11.0928 20.3913C11.0928 21.7042 11.0928 21.9057 11.0928 22.081C11.0928 22.2563 11.1786 22.4987 11.4956 22.4987H11.9507L12.0402 22.3122L12.0663 21.7826L12.1148 21.7639V19.2835H14.7295V20.686L16.2924 19.097L16.4975 17.5192C16.2178 17.4894 15.5688 17.4334 14.6661 17.4409Z" fill="white"/>
<path fill-rule="evenodd" clip-rule="evenodd" d="M15.5874 23.3051C14.8041 23.3051 13.5023 23.3051 13.5023 23.3051L13.4762 22.5031H14.4721L13.424 22.2905L13.0473 24.025L12.167 23.5625L13.0062 22.2905L12.6146 22.5031H12.857C12.719 22.6673 12.1446 23.3461 11.8387 23.7378C11.4881 24.1854 11.0815 25.0806 11.0815 26.0056C11.0815 26.9269 11.0853 27.6505 11.1375 27.8519C11.1897 28.0422 11.2867 28.4487 11.5664 28.6576C11.794 28.8292 12.346 28.8963 12.9316 28.9075V27.796H12.111V25.1775H14.7257V25.3976C15.0204 24.5024 15.3673 23.8124 16.6691 23.6109C16.6579 23.5065 16.6467 23.4356 16.6318 23.4058C16.5534 23.2342 16.3707 23.3051 15.5874 23.3051Z" fill="white"/>
</svg>
